<svg xmlns="http://www.w3.org/2000/svg" width="800px" height="800px" viewBox="0 0 24 24" id="Layer_1" data-name="Layer 1"><defs fill="#03a9f4"><style>.cls-1{fill:none;stroke:#03a9f4;stroke-miterlimit:10;stroke-width:1.91px;}.cls-2{fill:#03a9f4;}</style></defs><path class="cls-1" d="M9.14,5.08c0,2.39-3.82,6-3.82,6S1.5,7.47,1.5,5.08A3.7,3.7,0,0,1,5.32,1.5,3.7,3.7,0,0,1,9.14,5.08Z" fill="#03a9f4"/><circle class="cls-2" cx="5.32" cy="5.32" r="0.95" fill="#03a9f4"/><path class="cls-1" d="M22.5,14.62c0,2.39-3.82,6-3.82,6s-3.82-3.58-3.82-6a3.7,3.7,0,0,1,3.82-3.57A3.7,3.7,0,0,1,22.5,14.62Z" fill="#03a9f4"/><circle class="cls-2" cx="18.68" cy="14.86" r="0.95" fill="#03a9f4"/><path class="cls-1" d="M4.36,13h4.3a2.39,2.39,0,0,1,2.39,2.39h0a2.39,2.39,0,0,1-2.39,2.39H3.89A2.39,2.39,0,0,0,1.5,20.11h0A2.39,2.39,0,0,0,3.89,22.5H19.64" fill="#03a9f4"/></svg>